<?xml version="1.0" encoding="iso-8859-1"?>
<!-- Generator: Adobe Illustrator 21.0.0, SVG Export Plug-In . SVG Version: 6.00 Build 0)  -->
<svg xmlns="http://www.w3.org/2000/svg" xmlns:xlink="http://www.w3.org/1999/xlink" version="1.1" id="Capa_1" x="0px" y="0px" viewBox="0 0 512 512" style="enable-background:new 0 0 512 512;" xml:space="preserve" width="512" height="512">
<g>
	<g>
		<g>
			<g>
				<g>
					<g>
						<g>
							<g>
								<g>
									<g>
										<circle style="fill:#80DBFF;" cx="256" cy="256" r="256"/>
									</g>
								</g>
							</g>
						</g>
					</g>
				</g>
			</g>
		</g>
	</g>
	<path style="fill:#4AB8F7;" d="M512,256c0-4.824-0.146-9.614-0.409-14.373l-97.807-97.807l25.221,57.929L312.548,75.293   L262,120.064l165.298,165.298l-20.843,60.253L152.577,91.737l90.129,196.923L132.668,178.622l-53.087,86.635l58.683,142.515   l-3.366-0.88l104.562,104.562C244.929,511.803,250.441,512,256,512C397.385,512,512,397.385,512,256z"/>
	<g>
		<g>
			<g>
				<g>
					<g>
						<g>
							<g>
								<g>
									<g>
										<path style="fill:#3F576B;" d="M256,449.573c-106.736,0-193.573-86.836-193.573-193.573            c0-36.541,10.239-72.135,29.61-102.934l40.631,25.556c-14.55,23.134-22.241,49.891-22.241,77.378            c0,80.27,65.304,145.573,145.573,145.573S401.573,336.27,401.573,256c0-48.67-24.18-93.923-64.682-121.051l26.713-39.881            c53.831,36.057,85.969,96.218,85.969,160.932C449.573,362.737,362.736,449.573,256,449.573z"/>
									</g>
								</g>
							</g>
						</g>
					</g>
				</g>
			</g>
		</g>
	</g>
	<g>
		<g>
			<g>
				<g>
					<g>
						<g>
							<g>
								<g>
									<g>
										<path style="fill:#2C4054;" d="M363.604,95.068l-26.713,39.881c40.502,27.128,64.682,72.38,64.682,121.051            c0,80.27-65.304,145.573-145.573,145.573c-0.124,0-0.247-0.004-0.371-0.005v48c0.124,0,0.247,0.005,0.371,0.005            c106.736,0,193.573-86.836,193.573-193.573C449.573,191.286,417.436,131.125,363.604,95.068z"/>
									</g>
								</g>
							</g>
						</g>
					</g>
				</g>
			</g>
		</g>
	</g>
	<g>
		<g>
			<path style="fill:#3F576B;" d="M152.577,91.737l132.163,157.326c12.786,15.22,9.246,38.218-7.526,48.888l0,0     c-17.368,11.05-40.504,3.603-48.166-15.504L152.577,91.737z"/>
		</g>
	</g>
	<g>
		<g>
			<path style="fill:#2C4054;" d="M284.739,249.063l-29.111-34.653v88.438c7.237,0.884,14.844-0.607,21.585-4.896l0,0     C293.985,287.281,297.525,264.283,284.739,249.063z"/>
		</g>
	</g>
	<g>
		<circle style="fill:#3F576B;" cx="284.104" cy="94.104" r="34.104"/>
	</g>
</g>















</svg>
